<?xml version="1.0" standalone="no"?>
<!DOCTYPE svg PUBLIC "-//W3C//DTD SVG 20010904//EN"
 "http://www.w3.org/TR/2001/REC-SVG-20010904/DTD/svg10.dtd">
<svg version="1.0" xmlns="http://www.w3.org/2000/svg"
 width="1024.000000pt" height="1024.000000pt" viewBox="0 0 1024.000000 1024.000000"
 preserveAspectRatio="xMidYMid meet">
<metadata>
Created by potrace 1.11, written by Peter Selinger 2001-2013
</metadata>
<g transform="translate(0.000000,1024.000000) scale(0.100000,-0.100000)"
fill="#000000" stroke="none">
<path d="M4521 9368 c-76 -8 -154 -52 -191 -105 -14 -20 -71 -115 -126 -212
l-102 -176 -803 0 c-644 -1 -812 -4 -844 -14 -43 -15 -89 -43 -118 -73 -18
-18 -217 -352 -217 -364 0 -3 -8 -18 -19 -32 -10 -15 -62 -103 -116 -197 -54
-93 -141 -244 -193 -335 -52 -91 -103 -178 -112 -195 -32 -56 -80 -140 -89
-155 -13 -21 -150 -258 -171 -295 -17 -31 -179 -310 -232 -400 -57 -97 -70
-135 -71 -200 0 -64 21 -123 78 -215 12 -19 33 -55 47 -80 14 -25 46 -81 71
-124 25 -44 45 -82 43 -85 -15 -27 -382 -666 -481 -836 -314 -541 -323 -558
-331 -615 -13 -93 -5 -111 221 -500 37 -64 195 -337 303 -525 41 -71 78 -134
82 -140 4 -5 22 -37 40 -70 18 -33 139 -242 268 -465 128 -223 244 -423 257
-445 34 -58 76 -99 131 -126 47 -23 59 -24 279 -26 127 -1 235 -2 242 -2 12
-1 13 -2 130 -206 45 -77 162 -281 262 -453 100 -172 181 -314 181 -316 0 -2
29 -52 65 -111 36 -59 65 -109 65 -110 0 -13 110 -187 134 -213 36 -39 89 -69
137 -77 47 -9 2370 -9 2411 0 43 9 106 46 140 82 23 24 104 158 196 323 14 25
31 54 39 65 13 19 26 20 826 20 l812 1 55 28 c71 36 97 66 177 206 36 63 165
286 286 495 275 477 340 590 519 900 80 138 182 314 226 391 138 238 136 252
-57 582 l-90 154 25 46 c14 26 33 61 43 77 41 70 443 765 543 940 59 105 112
197 118 205 70 112 89 164 86 241 -2 66 -19 106 -116 269 -18 30 -40 69 -50
85 -19 33 -146 254 -322 560 -64 110 -125 216 -135 235 -11 19 -89 154 -173
300 -84 146 -161 279 -170 295 -137 240 -223 385 -243 410 -13 17 -48 44 -78
60 l-54 30 -225 2 c-124 1 -235 2 -247 2 -17 1 -32 18 -61 69 -22 37 -151 261
-287 497 -136 237 -297 516 -358 620 -120 210 -156 253 -230 285 l-49 22
-1157 1 c-636 1 -1185 -1 -1220 -5z m2302 -328 c8 -8 69 -112 137 -230 68
-118 178 -309 245 -425 67 -115 175 -302 240 -415 65 -113 150 -261 190 -330
258 -446 394 -682 508 -880 72 -124 138 -238 147 -255 10 -16 59 -102 110
-190 50 -88 96 -164 101 -169 5 -6 9 -16 9 -24 0 -13 -98 -190 -220 -397 -26
-44 -118 -204 -205 -355 -261 -452 -396 -685 -403 -692 -7 -7 -711 -10 -1885
-8 l-309 0 33 58 c52 92 63 111 133 231 36 62 66 115 66 118 0 2 8 16 19 31
44 64 565 977 569 999 3 16 -25 74 -98 201 -56 97 -111 193 -122 212 -11 19
-63 109 -116 200 -52 91 -103 179 -112 195 -17 29 -112 194 -350 605 -384 665
-525 909 -542 940 -11 19 -89 154 -173 300 -85 146 -156 272 -160 280 -5 13
119 15 1085 15 955 0 1091 -2 1103 -15z m-2243 -90 c18 -30 43 -73 56 -96 13
-23 103 -180 202 -350 98 -170 250 -433 337 -584 87 -151 222 -385 300 -520
78 -135 186 -321 240 -415 54 -93 106 -183 115 -200 10 -16 93 -160 185 -320
91 -159 175 -303 184 -320 l18 -30 -86 -150 c-48 -82 -182 -314 -298 -515
-116 -201 -219 -379 -229 -397 -11 -18 -57 -98 -103 -178 -46 -80 -87 -147
-91 -150 -7 -4 -29 31 -128 205 -14 25 -45 78 -68 117 l-43 73 113 193 c62
107 116 201 120 208 3 8 15 28 25 44 28 44 26 62 -23 145 -23 41 -77 134 -118
205 -41 72 -203 351 -358 620 -156 270 -293 508 -305 530 -13 22 -44 76 -70
120 -26 44 -57 96 -67 115 -80 143 -193 332 -205 341 -9 8 -89 12 -263 11
-138 0 -250 4 -250 8 0 4 48 90 106 191 59 101 114 198 124 214 9 17 108 188
220 380 111 193 212 368 224 390 44 80 100 174 102 172 1 -1 16 -27 34 -57z
m-410 -400 c0 -4 -66 -121 -146 -261 -81 -140 -196 -340 -257 -445 l-109 -191
-259 -1 c-186 0 -260 3 -267 11 -8 10 -308 526 -365 627 -64 115 -113 198
-129 222 -10 14 -18 30 -18 35 0 6 308 10 775 10 426 0 775 -3 775 -7z m-1590
-113 c0 -3 30 -56 66 -118 51 -88 363 -630 380 -660 2 -3 -112 -7 -253 -7
-198 0 -259 -4 -269 -14 -7 -7 -79 -128 -160 -268 -81 -140 -188 -327 -239
-415 -50 -88 -118 -205 -150 -260 -32 -55 -74 -127 -93 -160 -19 -33 -45 -78
-57 -100 -12 -22 -47 -82 -77 -133 l-55 -94 -21 34 c-11 18 -29 49 -40 68 -10
19 -54 95 -97 168 -83 143 -81 133 -42 197 7 11 36 63 66 115 30 52 74 128 98
168 24 40 56 96 72 125 16 29 64 113 108 188 44 74 82 142 86 150 4 8 17 30
28 49 12 19 82 141 157 270 75 129 192 332 260 450 68 118 138 239 154 268
l30 53 24 -35 c13 -19 24 -37 24 -39z m1654 -878 c4 -5 107 -183 136 -234 22
-40 166 -289 562 -975 327 -565 388 -673 388 -680 0 -4 -371 -7 -825 -7 -717
0 -828 -2 -841 -15 -8 -8 -45 -68 -83 -134 -60 -105 -309 -536 -571 -989 -47
-82 -225 -391 -395 -685 -169 -294 -334 -579 -367 -633 -32 -55 -58 -100 -58
-102 0 -2 -22 -41 -49 -87 -60 -101 -91 -155 -133 -230 -18 -32 -35 -58 -38
-58 -3 0 -18 23 -35 52 -16 29 -42 73 -56 98 -15 25 -60 104 -101 175 -41 72
-140 243 -220 380 -80 138 -156 270 -170 295 -14 25 -67 116 -117 203 -50 86
-132 228 -182 315 -50 86 -102 175 -114 197 -13 22 -41 71 -63 109 l-40 68 50
87 c28 47 58 100 68 116 9 17 41 72 71 123 30 50 61 104 69 120 8 15 52 90 96
167 45 77 115 199 156 270 42 72 277 479 523 905 246 426 460 796 474 821 14
25 63 111 109 190 l83 144 835 -1 c459 -1 836 -3 838 -5z m4026 -6 c4 -4 127
-215 272 -468 146 -253 333 -577 415 -720 339 -587 310 -536 372 -646 l32 -57
-495 1 -495 0 14 27 c8 15 44 79 81 141 122 209 154 268 154 285 0 9 -113 213
-252 453 -138 240 -292 506 -341 591 -49 85 -99 171 -110 190 -10 19 -42 73
-69 119 -27 47 -45 87 -40 90 15 9 453 4 462 -6z m-3043 -1983 l111 0 -118
-202 -117 -203 -281 0 c-237 0 -284 -2 -296 -15 -13 -13 -38 -56 -137 -227
-11 -18 -27 -48 -38 -65 -50 -89 -810 -1406 -859 -1488 -30 -52 -66 -115 -79
-139 -13 -24 -31 -54 -39 -65 -8 -11 -14 -27 -14 -34 0 -8 49 -98 109 -200
100 -174 141 -247 141 -254 0 -5 -1550 -1 -1554 3 -3 2 24 53 60 113 35 59 64
109 64 111 0 5 490 851 500 862 5 7 10 15 10 17 0 5 106 191 206 363 20 34
214 369 253 437 13 23 49 84 80 136 31 52 58 100 60 105 2 6 27 51 56 100 29
50 62 106 73 125 11 19 68 118 127 220 59 102 121 209 137 238 17 28 36 55 43
60 8 4 323 6 702 5 378 -2 738 -3 800 -3z m4064 -3 l66 -2 -90 -155 c-49 -85
-132 -229 -185 -320 -52 -91 -144 -250 -205 -355 -60 -104 -121 -210 -135
-235 -14 -25 -45 -78 -69 -118 -24 -41 -43 -76 -43 -78 0 -2 -12 -23 -27 -45
l-26 -40 -55 93 c-50 85 -107 184 -374 647 -56 98 -86 161 -83 172 3 10 41 78
83 151 43 73 98 168 123 210 l44 77 115 3 c121 3 748 0 861 -5z m-4180 -507
c21 -35 203 -349 226 -390 13 -25 32 -56 42 -69 l18 -24 1165 0 c641 0 1170 3
1176 7 6 3 68 105 138 226 l128 219 21 -37 c12 -20 58 -100 102 -177 44 -77
91 -159 104 -182 13 -23 96 -167 185 -320 88 -153 206 -357 262 -453 55 -96
99 -177 97 -181 -3 -3 -753 -6 -1668 -7 l-1664 0 -99 171 c-54 95 -234 408
-401 696 -167 288 -303 527 -303 530 0 4 104 6 231 6 193 0 232 -3 240 -15z
m-429 -250 c114 -197 186 -322 563 -975 70 -121 133 -227 141 -236 13 -15 163
-16 1709 -15 l1694 1 -23 -40 c-56 -95 -806 -1394 -979 -1695 l-95 -165 -1696
-1 c-1538 -1 -1697 1 -1709 15 -8 9 -54 86 -102 171 -49 85 -168 292 -265 460
-97 168 -241 416 -319 552 l-143 247 360 623 c198 343 369 639 381 658 11 19
24 41 28 49 3 8 35 64 71 125 36 61 108 186 161 278 52 92 96 166 97 165 1 -1
57 -99 126 -217z m-968 -2304 c25 -44 53 -92 61 -106 8 -14 46 -79 85 -145
l69 -119 -23 -41 c-63 -110 -387 -672 -395 -685 -6 -8 -19 -31 -30 -51 -10
-20 -32 -57 -48 -83 l-29 -46 -24 42 c-13 24 -81 142 -151 263 -70 121 -140
243 -155 270 -110 194 -149 260 -156 263 -4 2 -8 8 -8 14 0 6 -20 44 -45 85
-25 40 -45 76 -45 78 0 3 -16 29 -35 59 -19 30 -35 57 -35 59 0 2 -27 51 -60
108 -33 57 -60 107 -60 110 0 4 233 6 519 7 l519 0 46 -82z m509 -877 l25 -37
824 -1 c453 0 827 0 831 -1 9 0 -25 -61 -140 -259 -40 -69 -74 -130 -76 -135
-3 -8 -342 -11 -1100 -11 -859 0 -1096 3 -1093 12 5 11 56 101 251 438 32 55
66 114 75 130 94 164 145 252 153 263 7 9 40 -40 117 -175 60 -104 120 -204
133 -224z"/>
</g>
</svg>
